<?xml version="1.0" encoding="UTF-8" standalone="no"?>
<!-- Created with Inkscape (http://www.inkscape.org/) -->

<svg
   width="411.93219mm"
   height="543.48938mm"
   viewBox="0 0 411.93219 543.48938"
   version="1.1"
   id="svg1"
   xml:space="preserve"
   sodipodi:docname="pfp_min.svg"
   inkscape:version="1.3.2 (091e20e, 2023-11-25)"
   xmlns:inkscape="http://www.inkscape.org/namespaces/inkscape"
   xmlns:sodipodi="http://sodipodi.sourceforge.net/DTD/sodipodi-0.dtd"
   xmlns="http://www.w3.org/2000/svg"
   xmlns:svg="http://www.w3.org/2000/svg"><sodipodi:namedview
     id="namedview1"
     pagecolor="#ffffff"
     bordercolor="#000000"
     borderopacity="0.25"
     inkscape:showpageshadow="2"
     inkscape:pageopacity="0.0"
     inkscape:pagecheckerboard="0"
     inkscape:deskcolor="#d1d1d1"
     inkscape:document-units="mm"
     inkscape:zoom="0.35306443"
     inkscape:cx="712.33457"
     inkscape:cy="1098.9496"
     inkscape:window-width="1800"
     inkscape:window-height="1041"
     inkscape:window-x="1920"
     inkscape:window-y="44"
     inkscape:window-maximized="0"
     inkscape:current-layer="layer2"
     inkscape:export-bgcolor="#ffffff00"><inkscape:page
       x="0"
       y="0"
       width="411.93219"
       height="543.48938"
       id="page12"
       margin="0"
       bleed="0"
       inkscape:export-filename="pfp_min.png"
       inkscape:export-xdpi="96"
       inkscape:export-ydpi="96" /></sodipodi:namedview><defs
     id="defs1" /><g
     inkscape:groupmode="layer"
     id="layer2"
     inkscape:label="Layer 2"
     transform="translate(0,-28.010649)"
     style="display:inline"><path
       style="display:inline;fill:none;fill-opacity:1;stroke:#000000;stroke-width:6.61458;stroke-linecap:round;stroke-linejoin:round;stroke-dasharray:none;stroke-opacity:1"
       d="m 358.44007,543.48935 c 0,0 -0.50826,-38.73561 -3.68177,-60.66177 -3.1735,-21.92617 -17.06285,-72.71329 -17.06285,-72.71329 0,0 12.5113,-2.0073 29.36289,6.64023 -3.76944,-11.30831 -19.92185,-19.87974 -29.48378,-22.48754 7.40733,-1.86248 12.51411,-3.94406 24.98865,-5.32395 -21.93953,-2.93968 -40.93352,-12.33688 -56.05887,-30.21532 15.37216,-6.90612 27.21433,-15.48434 37.62581,-24.74026 -7.7087,-10.10255 -15.74506,-18.85673 -24.22485,-25.42749 7.87531,-11.55018 25.40803,-20.09885 38.21678,-24.59227 -1.9197,-3.05728 -9.69622,-4.86634 -19.14617,-3.58414 7.73365,-17.14437 20.74424,-27.15083 31.86197,-36.22547 -13.27966,-0.49198 -29.24199,4.31645 -45.61848,13.58127 29.5566,-41.32408 63.49752,-138.56352 54.99028,-181.978359 -47.89725,17.69926 -96.19267,43.621409 -107.20778,74.564399 1.59114,-31.17962 -14.44276,-55.101859 -37.96943,-75.938849 2.60518,12.97139 6.20339,26.053119 2.4053,38.313039 -10.09727,-26.925569 -24.61906,-31.084259 -35.10962,-34.729929 11.58707,19.03758 4.28685,35.299189 -0.4871,51.730679 0,0 -6.07177,-81.524399 -52.95465,-121.588073 -39.65812,25.615889 -51.676048,147.642793 -51.676048,147.642793 0,0 -33.243958,10.0086 -42.299132,25.10057 10.798979,-2.20785 17.76266,-4.60256 27.605126,0.27099 -9.57848,4.84107 -12.595063,7.18003 -19.096977,15.53444 14.533763,-2.89472 19.498615,2.1692 25.985167,9.58743 -5.855176,16.55906 -11.02573,55.35168 -11.02573,55.35168 -0.07151,-0.0953 -6.292479,0.12723 -10.251387,-5.24458 -2.647037,-6.95939 -0.930391,13.60272 1.794677,15.26804 2.725066,1.66534 -9.217003,-1.68998 -14.233514,0.27034 7.943458,4.9016 14.628707,16.94655 11.952922,32.61887 -19.719986,5.44839 -34.789314,11.74325 -34.789314,11.74325 0,0 37.324828,65.76334 60.746687,76.28553 -3.495111,18.60914 -18.602413,22.36698 -30.65486,22.9695 10.578318,3.41893 14.417195,11.66732 13.81333,11.57896 -9.037529,-1.32238 -20.123542,8.20017 -20.123542,8.20017 0,0 10.226882,0.83885 10.844967,6.51902 0.373768,3.43491 -17.197507,34.96088 -14.252908,101.68011"
       id="path17-3"
       sodipodi:nodetypes="czcccccccccccccccccccccccccccccccscsc"
       transform="translate(0,28.010649)" /><path
       style="display:inline;opacity:1;fill:none;stroke:#000000;stroke-width:6.61458;stroke-linecap:round;stroke-linejoin:round;stroke-dasharray:none;stroke-opacity:1"
       d="m 358.44007,571.5 c 0,0 -0.50826,-38.73561 -3.68177,-60.66177 -3.1735,-21.92617 -17.06285,-72.71329 -17.06285,-72.71329 0,0 12.5113,-2.0073 29.36289,6.64023 -3.76944,-11.30831 -19.92185,-19.87974 -29.48378,-22.48754 7.40733,-1.86248 12.51411,-3.94406 24.98865,-5.32395 -21.93953,-2.93968 -40.93352,-12.33688 -56.05887,-30.21532 15.37216,-6.90612 27.21433,-15.48434 37.62581,-24.74026 -7.7087,-10.10255 -15.74506,-18.85673 -24.22485,-25.42749 7.87531,-11.55018 25.40803,-20.09885 38.21678,-24.59227 -1.9197,-3.05728 -9.69622,-4.86634 -19.14617,-3.58414 7.73365,-17.14437 20.74424,-27.15083 31.86197,-36.22547 -13.27966,-0.49198 -29.24199,4.31645 -45.61848,13.58127 29.5566,-41.32408 63.49752,-138.56352 54.99028,-181.97836 -47.89725,17.69926 -96.19267,43.62141 -107.20778,74.5644 1.59114,-31.17962 -14.44276,-55.10186 -37.96943,-75.93885 2.60518,12.97139 6.20339,26.05312 2.4053,38.31304 -10.09727,-26.92557 -24.61906,-31.08426 -35.10962,-34.72993 11.58707,19.03758 4.28685,35.29919 -0.4871,51.73068 M 67.641504,332.52348 c 0,0 31.23562,-10.56594 57.367926,-23.55468 26.1323,-12.98873 48.28563,-36.73262 48.28563,-36.73262 v 0 0"
       id="path17"
       sodipodi:nodetypes="czcccccccccccccccccczccc" /><path
       style="display:inline;opacity:1;fill:none;stroke:#000000;stroke-width:6.61458;stroke-linecap:round;stroke-linejoin:round;stroke-dasharray:none;stroke-opacity:1"
       d="m 88.268126,324.94294 c 0,0 9.6097,23.74031 1.786062,41.19842 -7.823638,17.45811 -28.539987,22.22715 -28.539987,22.22715"
       id="path18"
       sodipodi:nodetypes="czc" /><path
       style="display:inline;opacity:1;fill:none;stroke:#000000;stroke-width:6.61458;stroke-linecap:round;stroke-linejoin:round;stroke-dasharray:none;stroke-opacity:1"
       d="m 93.598877,420.55227 c 0,0 37.414613,6.68091 93.915273,-1.38557 56.50066,-8.06649 118.99019,-32.42834 118.99019,-32.42834"
       id="path19"
       sodipodi:nodetypes="czc" /><path
       style="display:inline;opacity:1;fill:none;stroke:#000000;stroke-width:6.61458;stroke-linecap:round;stroke-linejoin:round;stroke-dasharray:none;stroke-opacity:1"
       d="m 134.20233,423.14718 c 0,0 40.6696,35.11413 46.20227,34.82577 5.53267,-0.28836 82.354,-56.36665 82.354,-56.36665"
       id="path20"
       sodipodi:nodetypes="czc" /><path
       style="display:inline;opacity:1;fill:none;stroke:#000000;stroke-width:6.61458;stroke-linecap:round;stroke-linejoin:round;stroke-dasharray:none;stroke-opacity:1"
       d="m 93.598877,420.55227 c 31.178343,43.93825 65.504203,83.82969 102.209733,120.66156 40.01458,-50.8966 83.97425,-111.42024 110.69573,-154.47547"
       id="path21"
       sodipodi:nodetypes="ccc" /><path
       style="display:inline;opacity:1;fill:none;stroke:#000000;stroke-width:6.61458;stroke-linecap:round;stroke-linejoin:round;stroke-dasharray:none;stroke-opacity:1"
       d="m 96.906124,493.52064 c -6.036511,27.62588 -5.665635,53.18156 -4.778322,77.6786"
       id="path22"
       sodipodi:nodetypes="cc" /><path
       style="display:inline;opacity:1;fill:none;stroke:#000000;stroke-width:6.61458;stroke-linecap:round;stroke-linejoin:round;stroke-dasharray:none;stroke-opacity:1"
       d="m 277.86457,493.81687 c -1.79188,25.89437 -2.93644,51.78878 -2.36985,77.68315"
       id="path23"
       sodipodi:nodetypes="cc" /><path
       style="display:inline;opacity:1;fill:none;stroke:#000000;stroke-width:6.61458;stroke-linecap:round;stroke-linejoin:round;stroke-dasharray:none;stroke-opacity:1"
       d="m 338.97591,308.3942 c -8.05735,1.00218 -14.09906,2.5325 -22.89755,6.49921"
       id="path24"
       sodipodi:nodetypes="cc" /><path
       style="display:inline;opacity:1;fill:none;stroke:#000000;stroke-width:6.61458;stroke-linecap:round;stroke-linejoin:round;stroke-dasharray:none;stroke-opacity:1"
       d="m 82.516344,209.13726 17.092422,-8.98238"
       id="path25" /><path
       style="opacity:1;fill:none;stroke:#000000;stroke-width:6.61458;stroke-linecap:round;stroke-linejoin:round;stroke-dasharray:none;stroke-opacity:1"
       d="m 319.9053,336.57061 c -4.19461,-2.88743 -8.25607,-6.17432 -12.89421,-7.73115"
       id="path26"
       sodipodi:nodetypes="cc" /><path
       style="opacity:1;fill:none;stroke:#000000;stroke-width:6.61458;stroke-linecap:round;stroke-linejoin:round;stroke-dasharray:none;stroke-opacity:1"
       d="m 337.57457,422.27761 c -8.90865,2.76954 -15.26365,2.86628 -30.03325,11.01985"
       id="path27"
       sodipodi:nodetypes="cc" /><path
       style="opacity:1;fill:none;stroke:#000000;stroke-width:6.61458;stroke-linecap:round;stroke-linejoin:round;stroke-dasharray:none;stroke-opacity:1"
       d="m 338.9327,437.94819 c -4.32618,-0.0928 -9.1665,0.35159 -14.07007,2.50755"
       id="path28"
       sodipodi:nodetypes="cc" /><path
       style="display:inline;opacity:1;fill:none;stroke:#000000;stroke-width:6.61458;stroke-linecap:round;stroke-linejoin:round;stroke-dasharray:none;stroke-opacity:1"
       d="m 65.582376,466.45492 c 6.748808,3.7469 11.053854,11.90402 13.367999,19.35246"
       id="path29"
       sodipodi:nodetypes="cc" /><path
       style="opacity:1;fill:none;stroke:#000000;stroke-width:6.61458;stroke-linecap:round;stroke-linejoin:round;stroke-dasharray:none;stroke-opacity:1"
       d="m 76.757347,455.10072 c 6.430034,0.0177 8.49076,0.97862 12.517992,3.11408"
       id="path30"
       sodipodi:nodetypes="cc" /><path
       style="display:inline;opacity:1;fill:none;stroke:#000000;stroke-width:6.61458;stroke-linecap:round;stroke-linejoin:round;stroke-dasharray:none;stroke-opacity:1"
       d="m 337.72268,367.43981 c 2.67706,-0.97941 13.94386,12.83743 6.69221,10.31687 -4.80767,-1.67107 -9.65482,0.18941 -12.92726,2.63225 3.93249,1.71624 4.78081,3.6381 6.55136,5.49847 -15.74439,-0.48509 -17.80229,4.35233 -26.07773,6.77183"
       id="path31"
       sodipodi:nodetypes="csccc" /></g></svg>
